# xmcd CD database file
#
# Track frame offsets:
#	150
#	12747
#	25982
#	42065
#	56137
#	69925
#	81460
#	98022
#	117870
#	126610
#
# Disc length: 1852 seconds
#
# Revision: 0
# Processed by: cddbd v1.4PL0 Copyright (c) Steve Scherf et al.
# Submitted via: CDex 1.50beta9
#
DISCID=89073a0a
DTITLE=John Hogan - On The Wild Side
DYEAR=1900
DGENRE=Country
TTITLE0=The Wild Side Of Life
TTITLE1=High Cotton
TTITLE2=Baby For Bobby
TTITLE3=Mama's Got A Welcoming Smile
TTITLE4=The Offaly Rover
TTITLE5=Sny Tipperary Town
TTITLE6=Red River Valley
TTITLE7=(Now And Then There's) A Fool Such As I
TTITLE8=Your Monkey Won't Be Home To-Night
TTITLE9=Jealous Heart
EXTD=
EXTT0=
EXTT1=
EXTT2=
EXTT3=
EXTT4=
EXTT5=
EXTT6=
EXTT7=
EXTT8=
EXTT9=
PLAYORDER=
